# xmcd
#
# Track frame offsets: 
#        150
#        6401
#        18950
#        42851
#        62138
#        77711
#        91844
#        110529
#        129037
#        152431
#        172018
#        185265
#        204851
#
# Disc length: 2972 seconds
#
# Revision: 0
# Processed by: cddbd v1.5.2PL0 Copyright (c) Steve Scherf et al.
# Submitted via: ExactAudioCopy v0.99pb5
#
DISCID=940b9a0d
DTITLE=Sinobusi - Vagon Za Provetravanje Tunela
DYEAR=2010
DGENRE=Blues
TTITLE0=Intro
TTITLE1=Super Bejbe
TTITLE2=Bluz Novog Dana
TTITLE3=Obasjaj Nam Put
TTITLE4=Svitac
TTITLE5=Mirna Backa
TTITLE6=Ravnodusna Pesma
TTITLE7=Ja moram Da Te Vidim Sto Pre
TTITLE8=Wayfaring Stranger
TTITLE9=Raskrsce
TTITLE10=Nadomak Oka
TTITLE11=Srebrna Strela
TTITLE12=Beskrajna Pruga
EXTD=
EXTT0=
EXTT1=
EXTT2=
EXTT3=
EXTT4=
EXTT5=
EXTT6=
EXTT7=
EXTT8=
EXTT9=
EXTT10=
EXTT11=
EXTT12=
PLAYORDER=
